<svg width="70" height="55" viewBox="0 0 70 55" fill="none" xmlns="http://www.w3.org/2000/svg">
<path d="M68.6947 0.992675C69.4656 1.68485 69.9327 2.65749 69.9933 3.69692C70.0539 4.73634 69.7031 5.75753 69.0179 6.53612L27.4865 53.681C27.1212 54.0958 26.6729 54.4278 26.1712 54.6551C25.6695 54.8825 25.1258 55 24.5759 55C24.0259 55 23.4822 54.8825 22.9805 54.6551C22.4788 54.4278 22.0306 54.0958 21.6652 53.681L0.899539 30.1085C0.253628 29.3246 -0.0649719 28.318 0.011043 27.3015C0.0870579 26.2849 0.551735 25.3379 1.30691 24.6607C2.06209 23.9834 3.04863 23.6288 4.05812 23.6718C5.06761 23.7148 6.021 24.1521 6.71689 24.8912L24.5739 45.1595L63.2005 1.31483C63.8871 0.537553 64.8514 0.0670288 65.8815 0.0066236C66.9117 -0.0537816 67.9235 0.300871 68.6947 0.992675Z" fill="#B23943"/>
</svg>
