<svg width="48" height="48" viewBox="0 0 48 48" fill="none" xmlns="http://www.w3.org/2000/svg">
<g clip-path="url(#clip0_136_288)">
<path fill-rule="evenodd" clip-rule="evenodd" d="M8.63091 7.5C7.87382 3.6 10.9022 0 14.8391 0C18.3218 0 21.1987 2.85 21.1987 6.3V14.1C22.1073 14.1 23.0158 13.95 23.9243 13.95C24.8328 13.95 25.5899 13.95 26.4984 14.1V6.3C26.4984 2.85 29.3754 0 32.858 0C36.795 0 39.8233 3.6 39.2177 7.5L37.552 16.65C43.4574 19.2 48 23.7 48 29.25V32.7C48 37.35 44.9716 41.25 40.5804 43.8C36.1893 46.5 30.4353 48 23.9243 48C17.4132 48 11.6593 46.5 7.26814 43.8C3.02839 41.25 0 37.35 0 32.7V29.25C0 23.7 4.39117 19.2 10.2965 16.65L8.63091 7.5ZM35.2808 17.85L37.2492 7.05C37.7035 4.35 35.735 1.8 32.858 1.8C30.4353 1.8 28.4669 3.75 28.4669 6.15V16.05C27.8612 15.9 27.1041 15.9 26.4984 15.9C25.5899 15.9 24.8328 15.75 23.9243 15.75C23.0158 15.75 22.1073 15.75 21.1987 15.9C20.5931 15.9 19.836 16.05 19.2303 16.05V6.3C19.2303 3.9 17.2618 1.95 14.8391 1.95C12.1136 1.95 9.99369 4.5 10.5994 7.2L12.5678 18C6.2082 20.4 1.96845 24.6 1.96845 29.4V32.85C1.96845 40.2 11.8107 46.2 23.9243 46.2C36.0379 46.2 45.8801 40.2 45.8801 32.85V29.4C46.0315 24.45 41.7918 20.25 35.2808 17.85Z" fill="#633001"/>
<path d="M46.0315 32.7C46.0315 40.05 36.1893 46.05 24.0757 46.05C11.9621 46.05 2.11987 40.05 2.11987 32.7V29.25H46.183V32.7H46.0315Z" fill="#FEDC90"/>
<path fill-rule="evenodd" clip-rule="evenodd" d="M10.5994 7.20001C9.99369 4.50001 12.1136 1.95001 14.8391 1.95001C17.2618 1.95001 19.2303 3.90001 19.2303 6.30001V16.2C20.7445 16.05 22.2587 15.9 23.9243 15.9C25.4385 15.9 26.9527 16.05 28.4669 16.2V6.30001C28.4669 3.90001 30.4353 1.95001 32.858 1.95001C35.5836 1.95001 37.7035 4.50001 37.2492 7.20001L35.2808 18C41.6404 20.4 46.0315 24.6 46.0315 29.4C46.0315 36.75 36.1893 42.75 24.0757 42.75C11.9621 42.75 2.11987 36.75 2.11987 29.4C2.11987 24.6 6.35962 20.4 12.7192 18L10.5994 7.20001Z" fill="#D1884F"/>
<path d="M17.8675 28.35C17.8675 30.3 16.8076 31.95 15.4448 31.95C14.082 31.95 13.0221 30.3 13.0221 28.35C13.0221 26.4 14.082 24.75 15.4448 24.75C16.8076 24.75 17.8675 26.4 17.8675 28.35Z" fill="#633001"/>
<path d="M34.6751 28.35C34.6751 30.3 33.6151 31.95 32.2524 31.95C30.8896 31.95 29.8297 30.3 29.8297 28.35C29.8297 26.4 30.8896 24.75 32.2524 24.75C33.6151 24.75 34.6751 26.4 34.6751 28.35Z" fill="#633001"/>
</g>
<defs>
<clipPath id="clip0_136_288">
<rect width="48" height="48" fill="white"/>
</clipPath>
</defs>
</svg>
