<svg width="433" height="234" viewBox="0 0 433 234" fill="none" xmlns="http://www.w3.org/2000/svg">
<g filter="url(#filter0_i_136_392)">
<path d="M414.388 7.44543C390.522 -19.4035 287.912 32.6162 244.251 64.3129V130.969C262.275 148.682 316.806 198.226 376.165 230.254C440.957 265.214 444.22 41.0066 414.388 7.44543Z" fill="#FFEB4B"/>
</g>
<path d="M339.807 44.8644L260.099 70.9675L248.446 71.4336V111.987L323.026 141.819C324.891 141.819 324.736 140.731 323.493 139.954L254.506 104.529V99.8674L319.297 98.9352C321.535 97.8164 320.23 96.9153 319.297 96.6045L254.506 91.4771V83.0868L341.205 47.6611C345.307 44.6779 341.982 44.5536 339.807 44.8644Z" fill="#BFAC0A"/>
<g filter="url(#filter1_i_136_392)">
<path d="M18.1173 7.44543C41.983 -19.4035 144.593 32.6162 188.254 64.3129V130.969C170.23 148.682 115.699 198.226 56.3398 230.254C-8.45201 265.214 -11.7149 41.0066 18.1173 7.44543Z" fill="#FFEB4B"/>
</g>
<path d="M92.6978 44.8644L172.406 70.9675L184.059 71.4336V111.987L109.478 141.819C107.614 141.819 107.769 140.731 109.012 139.954L177.999 104.529V99.8674L113.207 98.9352C110.97 97.8164 112.275 96.9153 113.207 96.6045L177.999 91.4771V83.0868L91.2994 47.6611C87.1975 44.6779 90.5225 44.5536 92.6978 44.8644Z" fill="#BFAC0A"/>
<g filter="url(#filter2_i_136_392)">
<path d="M242.852 57.8603C231.684 55.0682 197.172 55.5295 189.248 57.8603C183.3 59.6098 173.4 65.3182 173.4 73.2424V122.186C173.4 122.186 176.507 134.15 190.18 136.17C203.853 138.19 232.225 139.339 247.514 133.373C250.959 132.029 253.84 126.518 255.438 122.186C259.167 106.337 255.438 76.9714 254.04 67.1827C252.641 62.9876 248.446 59.2586 242.852 57.8603Z" fill="#FFEB4B"/>
</g>
<mask id="mask0_136_392" style="mask-type:alpha" maskUnits="userSpaceOnUse" x="173" y="55" width="85" height="83">
<path d="M242.852 57.8603C231.684 55.0682 197.172 55.5295 189.248 57.8603C183.3 59.6098 173.4 65.3182 173.4 73.2424V122.186C173.4 122.186 176.507 134.15 190.18 136.17C203.853 138.19 232.225 139.339 247.514 133.373C250.959 132.029 253.84 126.518 255.438 122.186C259.167 106.337 255.438 76.9714 254.04 67.1827C252.641 62.9876 248.446 59.2586 242.852 57.8603Z" fill="#FFEB4B"/>
</mask>
<g mask="url(#mask0_136_392)">
<ellipse cx="240.522" cy="120.261" rx="26.1032" ry="27.0354" fill="#055796"/>
</g>
<ellipse cx="66.1902" cy="144.5" rx="31.6967" ry="34.4935" transform="rotate(-17.9063 66.1902 144.5)" fill="#CC2129"/>
<ellipse cx="375.224" cy="73.5986" rx="36.5598" ry="37.5895" transform="rotate(0.389996 375.224 73.5986)" fill="#CC2129"/>
<ellipse cx="52.2063" cy="61.5289" rx="20.5096" ry="19.5774" fill="#20581A"/>
<g filter="url(#filter3_i_136_392)">
<path d="M382.496 198.24C382.496 212.399 377.917 222.945 362.47 222.945L344.5 211.5L325.5 198.5C325.5 184.341 339.082 172.603 354.528 172.603C369.974 172.603 382.496 184.081 382.496 198.24Z" fill="#20581A"/>
</g>
<path d="M313.238 37.7564C313.238 45.7368 304.681 52.2063 294.127 52.2063C283.572 52.2063 275.948 51.7965 275.948 43.816C275.948 43.816 282.943 39.8469 290.398 35.8918C298.088 31.8118 306.246 27.7382 306.246 27.5015C306.246 27.5015 313.238 29.7759 313.238 37.7564Z" fill="#055796"/>
<defs>
<filter id="filter0_i_136_392" x="244.251" y="0" width="188.254" height="233.943" filterUnits="userSpaceOnUse" color-interpolation-filters="sRGB">
<feFlood flood-opacity="0" result="BackgroundImageFix"/>
<feBlend mode="normal" in="SourceGraphic" in2="BackgroundImageFix" result="shape"/>
<feColorMatrix in="SourceAlpha" type="matrix" values="0 0 0 0 0 0 0 0 0 0 0 0 0 0 0 0 0 0 127 0" result="hardAlpha"/>
<feOffset dx="-15" dy="-26"/>
<feComposite in2="hardAlpha" operator="arithmetic" k2="-1" k3="1"/>
<feColorMatrix type="matrix" values="0 0 0 0 0 0 0 0 0 0 0 0 0 0 0 0 0 0 0.25 0"/>
<feBlend mode="normal" in2="shape" result="effect1_innerShadow_136_392"/>
</filter>
<filter id="filter1_i_136_392" x="0" y="0" width="188.254" height="233.943" filterUnits="userSpaceOnUse" color-interpolation-filters="sRGB">
<feFlood flood-opacity="0" result="BackgroundImageFix"/>
<feBlend mode="normal" in="SourceGraphic" in2="BackgroundImageFix" result="shape"/>
<feColorMatrix in="SourceAlpha" type="matrix" values="0 0 0 0 0 0 0 0 0 0 0 0 0 0 0 0 0 0 127 0" result="hardAlpha"/>
<feOffset dx="12" dy="-26"/>
<feComposite in2="hardAlpha" operator="arithmetic" k2="-1" k3="1"/>
<feColorMatrix type="matrix" values="0 0 0 0 0 0 0 0 0 0 0 0 0 0 0 0 0 0 0.25 0"/>
<feBlend mode="normal" in2="shape" result="effect1_innerShadow_136_392"/>
</filter>
<filter id="filter2_i_136_392" x="173.4" y="55.9353" width="83.6483" height="81.8635" filterUnits="userSpaceOnUse" color-interpolation-filters="sRGB">
<feFlood flood-opacity="0" result="BackgroundImageFix"/>
<feBlend mode="normal" in="SourceGraphic" in2="BackgroundImageFix" result="shape"/>
<feColorMatrix in="SourceAlpha" type="matrix" values="0 0 0 0 0 0 0 0 0 0 0 0 0 0 0 0 0 0 127 0" result="hardAlpha"/>
<feOffset dx="6" dy="-2"/>
<feComposite in2="hardAlpha" operator="arithmetic" k2="-1" k3="1"/>
<feColorMatrix type="matrix" values="0 0 0 0 0 0 0 0 0 0 0 0 0 0 0 0 0 0 0.25 0"/>
<feBlend mode="normal" in2="shape" result="effect1_innerShadow_136_392"/>
</filter>
<filter id="filter3_i_136_392" x="325.5" y="172.603" width="56.9957" height="50.3418" filterUnits="userSpaceOnUse" color-interpolation-filters="sRGB">
<feFlood flood-opacity="0" result="BackgroundImageFix"/>
<feBlend mode="normal" in="SourceGraphic" in2="BackgroundImageFix" result="shape"/>
<feColorMatrix in="SourceAlpha" type="matrix" values="0 0 0 0 0 0 0 0 0 0 0 0 0 0 0 0 0 0 127 0" result="hardAlpha"/>
<feOffset dx="5" dy="-12"/>
<feComposite in2="hardAlpha" operator="arithmetic" k2="-1" k3="1"/>
<feColorMatrix type="matrix" values="0 0 0 0 0 0 0 0 0 0 0 0 0 0 0 0 0 0 0.25 0"/>
<feBlend mode="normal" in2="shape" result="effect1_innerShadow_136_392"/>
</filter>
</defs>
</svg>
